PathFileType	4	(X/Y/Z)	C:\Users\WrightLab\Desktop\Jo\P4V124.trc
DataRate	CameraRate	NumFrames	NumMarkers	Units	OrigDataRate	OrigDataStartFrame	OrigNumFrames
100.00	100.00	       15	19	mm	100.00	211	       562
Frame#	Time	Headset_Front			Headset_Back			Headset_Left			Headset_Right			Left_Shoulder			Right_Shoulder			Sternum			C7			Left Elbow			Right Elbow			Left Wrist			Right Wrist			Left ASIS			Right ASIS			S2			Left Knee			Right Knee			Left Ankle			Right Ankle			
		X1	Y1	Z1	X2	Y2	Z2	X3	Y3	Z3	X4	Y4	Z4	X5	Y5	Z5	X6	Y6	Z6	X7	Y7	Z7	X8	Y8	Z8	X9	Y9	Z9	X10	Y10	Z10	X11	Y11	Z11	X12	Y12	Z12	X13	Y13	Z13	X14	Y14	Z14	X15	Y15	Z15	X16	Y16	Z16	X17	Y17	Z17	X18	Y18	Z18	X19	Y19	Z19	

211	2.100	-673.67328	1029.01306	-190.59850										-475.52536	1499.50562	-164.77350	-756.81018	1509.67993	-49.45393	-564.57941	1441.94409	-10.58762	-642.15222	1536.78870	-158.56712	-342.92319	1150.73669	-172.82407	-899.43274	1167.93188	19.04512	-340.11053	889.86407	5.19527	-869.16345	887.93768	142.47182	-460.01917	986.63977	-99.88475	-745.62244	1041.38269	68.95443				-451.15646	516.88477	-17.95215	-766.87036	562.38330	129.22430	-722.77405	274.47250	-345.40207	-784.09692	48.30827	59.27251	
212	2.110	-672.37219	1030.76343	-181.92632										-472.98483	1501.56799	-157.58707	-751.43384	1512.37830	-37.10754	-559.76819	1444.39832	-1.88038	-638.96460	1539.03125	-148.97023	-340.86151	1152.39734	-171.46933	-893.21100	1171.69458	36.02834	-333.38336	890.94354	5.56338	-860.26447	891.27130	158.48651	-457.06604	990.62793	-91.90223	-741.65497	1042.78748	78.12363				-440.47101	523.98132	-2.69911	-764.34082	562.54620	132.80269	-716.92828	274.92526	-322.68073	-783.28687	49.07302	58.71248	
213	2.120	-670.71832	1032.31384	-173.10928	-493.64938	1671.15942	91.00296							-470.36887	1503.88904	-151.86774	-746.46283	1515.33179	-25.04974	-555.16895	1446.09790	6.68154	-636.00665	1542.61243	-139.08783	-338.39981	1154.80859	-170.92264	-887.07605	1175.52893	52.38129	-327.09573	892.40137	4.07890	-850.22894	894.65826	174.47964	-454.33063	994.38977	-86.83997	-737.23450	1043.81250	87.82112				-429.34198	531.12836	11.89854	-761.47424	561.50189	134.79291	-710.27417	274.08215	-299.28290	-783.03674	49.60759	59.47664	
214	2.130	-668.98425	1034.51575	-166.16313	-488.44669	1672.92029	99.88544							-468.02887	1505.97656	-144.71167	-741.63226	1518.37646	-13.83342	-549.93866	1448.62366	14.62883	-633.00647	1544.68713	-129.44240	-336.47488	1156.69836	-170.14064	-880.97693	1179.08057	68.90958	-321.65247	893.38812	3.53850	-840.51996	899.51611	192.43939	-451.89209	998.01031	-82.43958	-732.92053	1044.17432	96.78728				-418.55063	538.71924	26.76424	-759.26837	561.28186	137.39688	-702.15576	271.82724	-276.04941	-782.41986	50.48766	58.90378	
215	2.140				-482.94907	1674.41943	108.28437							-465.37363	1507.72571	-137.02078	-736.58807	1521.51074	-3.20872	-543.69464	1449.90808	20.86464	-629.96722	1546.88892	-120.36765	-334.23969	1157.98828	-169.13448	-874.07361	1182.47595	84.82352	-315.60077	894.85638	2.60586	-829.95923	903.52734	208.56302	-449.23099	1001.47791	-77.09363	-728.50549	1044.77405	103.37470				-407.49615	546.44830	40.15120	-756.87238	560.72058	140.91769	-693.16394	267.45117	-252.25893	-782.04181	51.21828	60.09352	
216	2.150				-477.77359	1675.66101	117.00976							-462.79337	1509.28931	-132.36513	-731.21326	1524.43445	8.31464	-539.02979	1451.29077	30.15372	-626.68890	1549.17651	-110.73266	-332.33633	1160.16577	-168.33522	-868.21124	1185.97717	101.25032	-310.10208	896.12085	2.03699	-820.13531	907.89917	224.88353	-446.20737	1004.50513	-71.47789	-725.11926	1044.73999	112.22444				-395.80899	553.86450	53.56491	-753.89319	560.22351	143.81657	-684.21759	262.15616	-228.86330	-781.03284	50.52842	57.58556	
217	2.160	-663.50922	1038.59753	-141.71300	-472.69168	1676.67896	125.71841							-460.21283	1511.70215	-125.14548	-725.53613	1526.49939	19.25961	-533.48950	1453.06348	37.69691	-623.44202	1550.75537	-101.39320	-330.87506	1161.68604	-168.74466	-862.04968	1189.31384	116.60590	-304.55234	897.88739	0.54732	-809.55640	911.97522	241.24159	-443.24191	1007.41742	-66.02672	-718.98840	1046.24072	123.34090				-384.89145	561.12549	65.37129	-751.53986	559.55957	147.14626	-673.94550	255.44089	-204.71356	-780.61060	51.99096	60.02277	
218	2.170	-661.34485	1039.63098	-133.82701	-467.40854	1677.74548	133.97444							-458.02554	1512.37830	-120.62373	-719.96869	1528.70496	29.98471	-527.31665	1453.95410	43.69401	-620.02618	1552.26746	-92.69559	-329.17496	1162.97742	-168.17482	-855.56281	1192.66309	132.19038	-298.23486	898.41553	-0.38422	-799.38367	916.77234	258.09979	-440.40295	1010.49451	-59.26455	-714.19537	1046.54565	131.74037				-373.76361	568.01074	76.73710	-749.48169	559.49915	150.74690	-662.18555	248.80661	-182.16626	-780.32532	52.32668	60.38765	
219	2.180	-659.09894	1040.48438	-125.88053	-461.93787	1678.29626	142.41861							-454.97397	1513.10144	-113.75376	-714.29242	1530.22168	41.12024	-522.49109	1455.81885	50.73211	-616.40137	1553.76404	-84.18860	-327.81934	1164.50244	-167.52249	-849.61823	1195.87109	147.37180	-292.90182	899.29346	-1.29600	-787.90173	920.44513	273.98071	-437.25256	1013.23541	-53.41239	-709.37036	1046.27686	140.72150				-362.44183	575.52350	87.82907	-747.14856	558.93823	153.25966	-649.90277	239.81577	-157.65488	-779.84985	52.63823	60.39452	
220	2.190	-656.77057	1041.21851	-117.86710	-457.11035	1678.71631	150.79720							-452.14743	1514.28198	-107.43568	-708.09235	1532.15771	52.06412	-517.29553	1455.80078	59.68784	-612.75903	1554.63416	-74.52436	-326.55447	1165.25488	-167.27963	-842.39258	1198.30029	163.03273	-287.21231	899.88239	-2.39575	-776.61255	924.68573	290.24384	-434.10165	1015.15771	-48.71455	-705.08490	1046.13110	149.05722				-351.22424	581.57239	97.35621	-745.01105	558.47717	157.17937	-636.75775	231.04539	-133.67490	-779.54187	53.11947	60.08790	
221	2.200	-654.20416	1041.79700	-109.68571	-450.95175	1678.77356	158.69449							-449.22446	1514.33508	-102.02550	-701.88989	1533.03113	62.74116	-511.06992	1456.82874	65.58566	-609.01416	1555.30786	-65.49108	-325.39056	1165.91565	-166.78531	-834.32062	1200.71118	178.67798	-281.47266	900.61279	-3.42652	-765.07928	928.29327	307.21994	-431.39673	1016.92670	-42.80295	-699.90149	1046.11523	156.91840				-341.14676	587.84235	105.78487	-742.28577	557.56744	160.24318	-623.19464	221.46486	-108.92782	-779.22894	53.47119	59.94032	
222	2.210				-446.11209	1678.90247	167.00575							-446.29190	1514.75952	-96.63605	-695.81415	1534.03418	73.81703	-504.57843	1457.22205	71.60913	-605.12207	1556.02649	-56.76687	-323.84311	1166.18225	-165.73671	-826.55750	1202.52271	194.01610	-276.21094	900.76385	-4.11641	-754.04700	932.10339	323.01532	-427.86075	1019.01251	-36.61721	-694.66211	1045.39319	165.46793				-331.44714	593.51019	113.33755	-740.10242	557.33636	164.30862	-608.31714	212.05411	-84.29088	-778.82770	53.60284	60.02417	
223	2.220	-582.54279	1714.50342	136.97531	-440.11853	1678.70691	174.81802							-442.87067	1515.16382	-90.77184	-689.20367	1534.83801	82.88274	-498.81345	1456.64355	77.71281	-601.04938	1556.38464	-48.20829	-323.31036	1166.37256	-165.43634	-819.95410	1204.58875	208.87308	-271.08719	900.19281	-5.43297	-742.67242	935.99738	339.03424	-424.42111	1020.52521	-30.53920	-690.27521	1045.16138	173.92824	-648.60486	1043.29004	-95.78173	-321.22464	598.75146	120.42523	-737.94617	556.69330	168.23865	-591.55389	201.64215	-60.30866	-778.47888	54.00805	59.72604	
224	2.230	-577.07245	1714.18091	145.27376	-435.31879	1678.70532	183.03136							-440.29742	1514.19055	-84.30847	-682.69415	1535.23755	93.16653	-492.05307	1456.58130	85.67119	-596.70508	1556.86316	-39.82714	-322.06110	1166.39954	-164.28775	-811.53583	1206.36279	224.22430	-265.28152	900.08130	-7.26053	-731.26123	939.12799	355.24911	-421.40771	1021.16132	-24.25352	-684.69977	1044.32715	182.73521	-645.64746	1043.42004	-87.30669	-311.57443	602.82916	127.60271	-735.83716	557.02979	171.93713	-573.45215	191.38960	-36.09906	-778.44495	54.45245	59.56763	
225	2.240				-429.46765	1678.32837	190.83406							-435.97238	1514.54114	-77.76207	-676.46954	1535.16785	103.64568	-485.63147	1455.56458	91.72813	-592.38159	1556.60889	-30.89035	-321.99472	1165.42151	-163.34508	-803.97327	1207.87781	238.62117	-260.42249	900.20618	-7.18150	-719.73779	943.03845	370.88147	-417.24249	1021.83282	-18.13746	-679.62915	1043.81824	191.04254	-642.45520	1043.53235	-80.09718	-302.52658	607.38171	133.43359	-733.19556	556.09064	176.11366	-553.52954	180.44949	-12.56714	-778.29022	54.61166	59.74942	
